{
  "accessors": [
    {
      "bufferView": 2,
      "componentType": 5126,
      "count": 5117,
      "max": [
        363.0995178222656,
        90.75794219970703,
        126.26008605957031
      ],
      "min": [
        -259.35784912109375,
        -90.75792694091797,
        -123.94808959960938
      ],
      "type": "VEC3"
    },
    {
      "bufferView": 2,
      "byteOffset": 61404,
      "componentType": 5126,
      "count": 5117,
      "max": [
        0.9999954700469971,
        1.0,
        0.9999996423721313
      ],
      "min": [
        -1.0,
        -1.0,
        -1.0
      ],
      "type": "VEC3"
    },
    {
      "bufferView": 3,
      "componentType": 5126,
      "count": 5117,
      "max": [
        0.9998095035552979,
        0.9999974370002747,
        0.9999920725822449,
        1.0
      ],
      "min": [
        -0.9999709725379944,
        -0.9999714493751526,
        -0.9999822974205017,
        -1.0
      ],
      "type": "VEC4"
    },
    {
      "bufferView": 1,
      "componentType": 5126,
      "count": 5117,
      "max": [
        0.9999989867210388,
        0.949724018573761
      ],
      "min": [
        0.0,
        0.0
      ],
      "type": "VEC2"
    },
    {
      "bufferView": 0,
      "componentType": 5125,
      "count": 13812,
      "type": "SCALAR"
    },
    {
      "bufferView": 2,
      "byteOffset": 122808,
      "componentType": 5126,
      "count": 7437,
      "max": [
        32.787811279296875,
        118.93701934814453,
        78.66526794433594
      ],
      "min": [
        -297.3670349121094,
        -118.93700408935547,
        -104.24455261230469
      ],
      "type": "VEC3"
    },
    {
      "bufferView": 2,
      "byteOffset": 212052,
      "componentType": 5126,
      "count": 7437,
      "max": [
        0.9999769926071167,
        1.0,
        1.0
      ],
      "min": [
        -1.0,
        -1.0,
        -1.0
      ],
      "type": "VEC3"
    },
    {
      "bufferView": 3,
      "byteOffset": 81872,
      "componentType": 5126,
      "count": 7437,
      "max": [
        0.9999983310699463,
        0.998969316482544,
        0.9999986886978149,
        1.0
      ],
      "min": [
        -1.0,
        -0.9999909400939941,
        -0.9999998211860657,
        -1.0
      ],
      "type": "VEC4"
    },
    {
      "bufferView": 1,
      "byteOffset": 40936,
      "componentType": 5126,
      "count": 7437,
      "max": [
        0.8567990064620972,
        0.9999989867210388
      ],
      "min": [
        0.0,
        0.0
      ],
      "type": "VEC2"
    },
    {
      "bufferView": 0,
      "byteOffset": 55248,
      "componentType": 5125,
      "count": 25908,
      "type": "SCALAR"
    },
    {
      "bufferView": 2,
      "byteOffset": 301296,
      "componentType": 5126,
      "count": 9022,
      "max": [
        248.5532989501953,
        98.0479507446289,
        69.4713363647461
      ],
      "min": [
        -221.28939819335938,
        -98.0479507446289,
        -127.70401000976563
      ],
      "type": "VEC3"
    },
    {
      "bufferView": 2,
      "byteOffset": 409560,
      "componentType": 5126,
      "count": 9022,
      "max": [
        1.0,
        1.0,
        1.0
      ],
      "min": [
        -1.0,
        -1.0,
        -1.0
      ],
      "type": "VEC3"
    },
    {
      "bufferView": 3,
      "byteOffset": 200864,
      "componentType": 5126,
      "count": 9022,
      "max": [
        1.0,
        0.9999988675117493,
        0.9999988675117493,
        1.0
      ],
      "min": [
        -1.0,
        -0.99991774559021,
        -0.9999984502792358,
        -1.0
      ],
      "type": "VEC4"
    },
    {
      "bufferView": 1,
      "byteOffset": 100432,
      "componentType": 5126,
      "count": 9022,
      "max": [
        0.9738339781761169,
        0.9999989867210388
      ],
      "min": [
        0.0,
        0.0
      ],
      "type": "VEC2"
    },
    {
      "bufferView": 0,
      "byteOffset": 158880,
      "componentType": 5125,
      "count": 29004,
      "type": "SCALAR"
    },
    {
      "bufferView": 2,
      "byteOffset": 517824,
      "componentType": 5126,
      "count": 4314,
      "max": [
        404.2468566894531,
        50.062137603759766,
        -10.39217758178711
      ],
      "min": [
        168.30087280273438,
        -50.062137603759766,
        -149.99795532226563
      ],
      "type": "VEC3"
    },
    {
      "bufferView": 2,
      "byteOffset": 569592,
      "componentType": 5126,
      "count": 4314,
      "max": [
        1.0,
        1.0,
        1.0
      ],
      "min": [
        -1.0,
        -1.0,
        -1.0
      ],
      "type": "VEC3"
    },
    {
      "bufferView": 3,
      "byteOffset": 345216,
      "componentType": 5126,
      "count": 4314,
      "max": [
        0.9999288320541382,
        0.9992006421089172,
        0.9999974370002747,
        1.0
      ],
      "min": [
        -0.9999997019767761,
        -1.0,
        -1.0,
        -1.0
      ],
      "type": "VEC4"
    },
    {
      "bufferView": 1,
      "byteOffset": 172608,
      "componentType": 5126,
      "count": 4314,
      "max": [
        0.9979220032691956,
        0.9999989867210388
      ],
      "min": [
        0.0,
        0.0
      ],
      "type": "VEC2"
    },
    {
      "bufferView": 0,
      "byteOffset": 274896,
      "componentType": 5125,
      "count": 12114,
      "type": "SCALAR"
    },
    {
      "bufferView": 2,
      "byteOffset": 621360,
      "componentType": 5126,
      "count": 1539,
      "max": [
        -222.9146270751953,
        50.57109832763672,
        -0.8433300256729126
      ],
      "min": [
        -348.5790100097656,
        -50.57112121582031,
        -126.50772094726563
      ],
      "type": "VEC3"
    },
    {
      "bufferView": 2,
      "byteOffset": 639828,
      "componentType": 5126,
      "count": 1539,
      "max": [
        1.0,
        1.0,
        1.0
      ],
      "min": [
        -1.0,
        -1.0,
        -1.0
      ],
      "type": "VEC3"
    },
    {
      "bufferView": 3,
      "byteOffset": 414240,
      "componentType": 5126,
      "count": 1539,
      "max": [
        1.0,
        0.99997878074646,
        0.9999993443489075,
        1.0
      ],
      "min": [
        -0.999988317489624,
        -0.9999822378158569,
        -0.9999995231628418,
        1.0
      ],
      "type": "VEC4"
    },
    {
      "bufferView": 1,
      "byteOffset": 207120,
      "componentType": 5126,
      "count": 1539,
      "max": [
        0.9999989867210388,
        0.8817999958992004
      ],
      "min": [
        0.0,
        0.0
      ],
      "type": "VEC2"
    },
    {
      "bufferView": 0,
      "byteOffset": 323352,
      "componentType": 5125,
      "count": 4752,
      "type": "SCALAR"
    },
    {
      "bufferView": 2,
      "byteOffset": 658296,
      "componentType": 5126,
      "count": 1070,
      "max": [
        436.2400817871094,
        50.40536117553711,
        51.989967346191406
      ],
      "min": [
        -401.4122619628906,
        -50.40533447265625,
        -181.99111938476563
      ],
      "type": "VEC3"
    },
    {
      "bufferView": 2,
      "byteOffset": 671136,
      "componentType": 5126,
      "count": 1070,
      "max": [
        1.0,
        1.0,
        1.0
      ],
      "min": [
        -1.0,
        -1.0,
        -1.0
      ],
      "type": "VEC3"
    },
    {
      "bufferView": 3,
      "byteOffset": 438864,
      "componentType": 5126,
      "count": 1070,
      "max": [
        0.9998295903205872,
        0.9999983906745911,
        0.9997973442077637,
        1.0
      ],
      "min": [
        -0.9898382425308228,
        -0.9999978542327881,
        -0.9999717473983765,
        1.0
      ],
      "type": "VEC4"
    },
    {
      "bufferView": 1,
      "byteOffset": 219432,
      "componentType": 5126,
      "count": 1070,
      "max": [
        0.5816299915313721,
        0.9999989867210388
      ],
      "min": [
        0.0,
        0.0
      ],
      "type": "VEC2"
    },
    {
      "bufferView": 0,
      "byteOffset": 342360,
      "componentType": 5125,
      "count": 5184,
      "type": "SCALAR"
    }
  ],
  "asset": {
    "extras": {
      "author": "JonnyMANSON (https://sketchfab.com/JonnyMANSON)",
      "license": "CC-BY-4.0 (http://creativecommons.org/licenses/by/4.0/)",
      "source": "https://sketchfab.com/3d-models/scifi-motorcycle-project-mx-2-017d95fd42b2445f905dfe4613ee859e",
      "title": "Scifi Motorcycle Project_MX_2"
    },
    "generator": "Sketchfab-13.31.0",
    "version": "2.0"
  },
  "bufferViews": [
    {
      "buffer": 0,
      "byteLength": 363096,
      "name": "floatBufferViews",
      "target": 34963
    },
    {
      "buffer": 0,
      "byteLength": 227992,
      "byteOffset": 363096,
      "byteStride": 8,
      "name": "floatBufferViews",
      "target": 34962
    },
    {
      "buffer": 0,
      "byteLength": 683976,
      "byteOffset": 591088,
      "byteStride": 12,
      "name": "floatBufferViews",
      "target": 34962
    },
    {
      "buffer": 0,
      "byteLength": 455984,
      "byteOffset": 1275064,
      "byteStride": 16,
      "name": "floatBufferViews",
      "target": 34962
    }
  ],
  "buffers": [
    {
      "byteLength": 1731048,
      "uri": "scene.bin"
    }
  ],
  "images": [
    {
      "uri": "textures/pART_01_baseColor.png"
    },
    {
      "uri": "textures/pART_01_metallicRoughness.png"
    },
    {
      "uri": "textures/pART_01_emissive.png"
    },
    {
      "uri": "textures/pART_01_normal.png"
    },
    {
      "uri": "textures/pART_02_baseColor.png"
    },
    {
      "uri": "textures/pART_02_metallicRoughness.png"
    },
    {
      "uri": "textures/pART_02_emissive.png"
    },
    {
      "uri": "textures/pART_02_normal.png"
    },
    {
      "uri": "textures/pART_03_baseColor.png"
    },
    {
      "uri": "textures/pART_03_metallicRoughness.png"
    },
    {
      "uri": "textures/pART_03_emissive.png"
    },
    {
      "uri": "textures/pART_03_normal.png"
    },
    {
      "uri": "textures/pART_04_baseColor.png"
    },
    {
      "uri": "textures/pART_04_metallicRoughness.png"
    },
    {
      "uri": "textures/pART_04_emissive.png"
    },
    {
      "uri": "textures/pART_04_normal.png"
    },
    {
      "uri": "textures/pART_05_baseColor.png"
    },
    {
      "uri": "textures/pART_05_metallicRoughness.png"
    },
    {
      "uri": "textures/pART_05_normal.png"
    },
    {
      "uri": "textures/tire_baseColor.png"
    },
    {
      "uri": "textures/tire_metallicRoughness.png"
    },
    {
      "uri": "textures/tire_normal.png"
    }
  ],
  "materials": [
    {
      "emissiveFactor": [
        1.0,
        1.0,
        1.0
      ],
      "emissiveTexture": {
        "index": 2
      },
      "name": "pART_01",
      "normalTexture": {
        "index": 3
      },
      "occlusionTexture": {
        "index": 1
      },
      "pbrMetallicRoughness": {
        "baseColorTexture": {
          "index": 0
        },
        "metallicRoughnessTexture": {
          "index": 1
        }
      }
    },
    {
      "emissiveFactor": [
        1.0,
        1.0,
        1.0
      ],
      "emissiveTexture": {
        "index": 6
      },
      "name": "pART_02",
      "normalTexture": {
        "index": 7
      },
      "occlusionTexture": {
        "index": 5
      },
      "pbrMetallicRoughness": {
        "baseColorTexture": {
          "index": 4
        },
        "metallicRoughnessTexture": {
          "index": 5
        }
      }
    },
    {
      "emissiveFactor": [
        1.0,
        1.0,
        1.0
      ],
      "emissiveTexture": {
        "index": 10
      },
      "name": "pART_03",
      "normalTexture": {
        "index": 11
      },
      "occlusionTexture": {
        "index": 9
      },
      "pbrMetallicRoughness": {
        "baseColorTexture": {
          "index": 8
        },
        "metallicRoughnessTexture": {
          "index": 9
        }
      }
    },
    {
      "emissiveFactor": [
        1.0,
        1.0,
        1.0
      ],
      "emissiveTexture": {
        "index": 14
      },
      "name": "pART_04",
      "normalTexture": {
        "index": 15
      },
      "occlusionTexture": {
        "index": 13
      },
      "pbrMetallicRoughness": {
        "baseColorTexture": {
          "index": 12
        },
        "metallicRoughnessTexture": {
          "index": 13
        }
      }
    },
    {
      "name": "pART_05",
      "normalTexture": {
        "index": 18
      },
      "occlusionTexture": {
        "index": 17
      },
      "pbrMetallicRoughness": {
        "baseColorTexture": {
          "index": 16
        },
        "metallicRoughnessTexture": {
          "index": 17
        }
      }
    },
    {
      "name": "tire",
      "normalTexture": {
        "index": 21
      },
      "occlusionTexture": {
        "index": 20
      },
      "pbrMetallicRoughness": {
        "baseColorTexture": {
          "index": 19
        },
        "metallicRoughnessTexture": {
          "index": 20
        }
      }
    }
  ],
  "meshes": [
    {
      "name": "Object_0",
      "primitives": [
        {
          "attributes": {
            "NORMAL": 1,
            "POSITION": 0,
            "TANGENT": 2,
            "TEXCOORD_0": 3
          },
          "indices": 4,
          "material": 0,
          "mode": 4
        }
      ]
    },
    {
      "name": "Object_1",
      "primitives": [
        {
          "attributes": {
            "NORMAL": 6,
            "POSITION": 5,
            "TANGENT": 7,
            "TEXCOORD_0": 8
          },
          "indices": 9,
          "material": 1,
          "mode": 4
        }
      ]
    },
    {
      "name": "Object_2",
      "primitives": [
        {
          "attributes": {
            "NORMAL": 11,
            "POSITION": 10,
            "TANGENT": 12,
            "TEXCOORD_0": 13
          },
          "indices": 14,
          "material": 2,
          "mode": 4
        }
      ]
    },
    {
      "name": "Object_3",
      "primitives": [
        {
          "attributes": {
            "NORMAL": 16,
            "POSITION": 15,
            "TANGENT": 17,
            "TEXCOORD_0": 18
          },
          "indices": 19,
          "material": 3,
          "mode": 4
        }
      ]
    },
    {
      "name": "Object_4",
      "primitives": [
        {
          "attributes": {
            "NORMAL": 21,
            "POSITION": 20,
            "TANGENT": 22,
            "TEXCOORD_0": 23
          },
          "indices": 24,
          "material": 4,
          "mode": 4
        }
      ]
    },
    {
      "name": "Object_5",
      "primitives": [
        {
          "attributes": {
            "NORMAL": 26,
            "POSITION": 25,
            "TANGENT": 27,
            "TEXCOORD_0": 28
          },
          "indices": 29,
          "material": 5,
          "mode": 4
        }
      ]
    }
  ],
  "nodes": [
    {
      "children": [
        1
      ],
      "matrix": [
        1.0,
        0.0,
        0.0,
        0.0,
        0.0,
        2.220446049250313e-16,
        -1.0,
        0.0,
        0.0,
        1.0,
        2.220446049250313e-16,
        0.0,
        0.0,
        0.0,
        0.0,
        1.0
      ],
      "name": "Sketchfab_model"
    },
    {
      "children": [
        2,
        3,
        4,
        5,
        6,
        7
      ],
      "name": "Moto_001_02.obj.cleaner.materialmerger.gles"
    },
    {
      "mesh": 0,
      "name": "Object_2"
    },
    {
      "mesh": 1,
      "name": "Object_3"
    },
    {
      "mesh": 2,
      "name": "Object_4"
    },
    {
      "mesh": 3,
      "name": "Object_5"
    },
    {
      "mesh": 4,
      "name": "Object_6"
    },
    {
      "mesh": 5,
      "name": "Object_7"
    }
  ],
  "samplers": [
    {
      "magFilter": 9729,
      "minFilter": 9987,
      "wrapS": 10497,
      "wrapT": 10497
    }
  ],
  "scene": 0,
  "scenes": [
    {
      "name": "Sketchfab_Scene",
      "nodes": [
        0
      ]
    }
  ],
  "textures": [
    {
      "sampler": 0,
      "source": 0
    },
    {
      "sampler": 0,
      "source": 1
    },
    {
      "sampler": 0,
      "source": 2
    },
    {
      "sampler": 0,
      "source": 3
    },
    {
      "sampler": 0,
      "source": 4
    },
    {
      "sampler": 0,
      "source": 5
    },
    {
      "sampler": 0,
      "source": 6
    },
    {
      "sampler": 0,
      "source": 7
    },
    {
      "sampler": 0,
      "source": 8
    },
    {
      "sampler": 0,
      "source": 9
    },
    {
      "sampler": 0,
      "source": 10
    },
    {
      "sampler": 0,
      "source": 11
    },
    {
      "sampler": 0,
      "source": 12
    },
    {
      "sampler": 0,
      "source": 13
    },
    {
      "sampler": 0,
      "source": 14
    },
    {
      "sampler": 0,
      "source": 15
    },
    {
      "sampler": 0,
      "source": 16
    },
    {
      "sampler": 0,
      "source": 17
    },
    {
      "sampler": 0,
      "source": 18
    },
    {
      "sampler": 0,
      "source": 19
    },
    {
      "sampler": 0,
      "source": 20
    },
    {
      "sampler": 0,
      "source": 21
    }
  ]
}
