{
  "accessors": [
    {
      "bufferView": 2,
      "componentType": 5126,
      "count": 13777,
      "max": [
        5.5520830154418945,
        3.4159555435180664,
        1.01437246799469
      ],
      "min": [
        -4.414017677307129,
        -5.268816947937012,
        -4.894032001495361
      ],
      "type": "VEC3"
    },
    {
      "bufferView": 2,
      "byteOffset": 165324,
      "componentType": 5126,
      "count": 13777,
      "max": [
        1.0,
        1.0,
        1.0
      ],
      "min": [
        -1.0,
        -1.0,
        -1.0
      ],
      "type": "VEC3"
    },
    {
      "bufferView": 1,
      "componentType": 5126,
      "count": 13777,
      "max": [
        0.9996280074119568,
        0.9994059801101685
      ],
      "min": [
        0.0020169999916106462,
        0.0004459999909158796
      ],
      "type": "VEC2"
    },
    {
      "bufferView": 0,
      "componentType": 5125,
      "count": 36453,
      "type": "SCALAR"
    },
    {
      "bufferView": 2,
      "byteOffset": 330648,
      "componentType": 5126,
      "count": 8793,
      "max": [
        5.572211742401123,
        3.4378814697265625,
        1.03275728225708
      ],
      "min": [
        -4.433234691619873,
        -5.291313648223877,
        -4.916275978088379
      ],
      "type": "VEC3"
    },
    {
      "bufferView": 2,
      "byteOffset": 436164,
      "componentType": 5126,
      "count": 8793,
      "max": [
        1.0,
        1.0,
        1.0
      ],
      "min": [
        -1.0,
        -1.0,
        -1.0
      ],
      "type": "VEC3"
    },
    {
      "bufferView": 1,
      "byteOffset": 110216,
      "componentType": 5126,
      "count": 8793,
      "max": [
        0.9996280074119568,
        0.9994059801101685
      ],
      "min": [
        0.0020169999916106462,
        0.0004459999909158796
      ],
      "type": "VEC2"
    },
    {
      "bufferView": 0,
      "byteOffset": 145812,
      "componentType": 5125,
      "count": 23382,
      "type": "SCALAR"
    },
    {
      "bufferView": 2,
      "byteOffset": 541680,
      "componentType": 5126,
      "count": 4,
      "max": [
        4.986000061035156,
        2.9506518840789795,
        -1.937579870223999
      ],
      "min": [
        4.985998153686523,
        -1.5516180992126465,
        -4.493670463562012
      ],
      "type": "VEC3"
    },
    {
      "bufferView": 2,
      "byteOffset": 541728,
      "componentType": 5126,
      "count": 4,
      "max": [
        -1.0,
        0.0,
        -0.0
      ],
      "min": [
        -1.0,
        0.0,
        -0.0
      ],
      "type": "VEC3"
    },
    {
      "bufferView": 1,
      "byteOffset": 180560,
      "componentType": 5126,
      "count": 4,
      "max": [
        0.9429029822349548,
        0.2949199974536896
      ],
      "min": [
        0.9242330193519592,
        0.26909899711608887
      ],
      "type": "VEC2"
    },
    {
      "bufferView": 0,
      "byteOffset": 239340,
      "componentType": 5125,
      "count": 6,
      "type": "SCALAR"
    }
  ],
  "asset": {
    "extras": {
      "author": "Mikita Hubanau (https://sketchfab.com/Mikita_Hubanau)",
      "license": "CC-BY-NC-4.0 (http://creativecommons.org/licenses/by-nc/4.0/)",
      "source": "https://sketchfab.com/3d-models/cyberpunk-micro-apartments-fd8011e2af0e43288f5445600197ea77",
      "title": "Cyberpunk Micro-Apartments"
    },
    "generator": "Sketchfab-10.55.0",
    "version": "2.0"
  },
  "bufferViews": [
    {
      "buffer": 0,
      "byteLength": 239364,
      "name": "floatBufferViews",
      "target": 34963
    },
    {
      "buffer": 0,
      "byteLength": 180592,
      "byteOffset": 239364,
      "byteStride": 8,
      "name": "floatBufferViews",
      "target": 34962
    },
    {
      "buffer": 0,
      "byteLength": 541776,
      "byteOffset": 419956,
      "byteStride": 12,
      "name": "floatBufferViews",
      "target": 34962
    }
  ],
  "buffers": [
    {
      "byteLength": 961732,
      "uri": "scene.bin"
    }
  ],
  "extensionsUsed": [
    "KHR_materials_unlit"
  ],
  "images": [
    {
      "uri": "textures/UV_TEST_baseColor.png"
    }
  ],
  "materials": [
    {
      "doubleSided": true,
      "extensions": {
        "KHR_materials_unlit": {}
      },
      "name": "UV_TEST",
      "pbrMetallicRoughness": {
        "baseColorTexture": {
          "index": 0
        },
        "metallicFactor": 0.0
      }
    },
    {
      "extensions": {
        "KHR_materials_unlit": {}
      },
      "name": "gran.001",
      "pbrMetallicRoughness": {
        "baseColorFactor": [
          0.0137021,
          0.0423114,
          0.031896,
          1.0
        ],
        "metallicFactor": 0.0
      }
    },
    {
      "alphaMode": "BLEND",
      "doubleSided": true,
      "extensions": {
        "KHR_materials_unlit": {}
      },
      "name": "glass",
      "pbrMetallicRoughness": {
        "baseColorFactor": [
          0.15766773041875703,
          0.0017820830101539932,
          0.0017820830101539932,
          0.5732463260553661
        ],
        "metallicFactor": 0.0
      }
    }
  ],
  "meshes": [
    {
      "name": "Object_0",
      "primitives": [
        {
          "attributes": {
            "NORMAL": 1,
            "POSITION": 0,
            "TEXCOORD_0": 2
          },
          "indices": 3,
          "material": 0,
          "mode": 4
        }
      ]
    },
    {
      "name": "Object_1",
      "primitives": [
        {
          "attributes": {
            "NORMAL": 5,
            "POSITION": 4,
            "TEXCOORD_0": 6
          },
          "indices": 7,
          "material": 1,
          "mode": 4
        }
      ]
    },
    {
      "name": "Object_2",
      "primitives": [
        {
          "attributes": {
            "NORMAL": 9,
            "POSITION": 8,
            "TEXCOORD_0": 10
          },
          "indices": 11,
          "material": 2,
          "mode": 4
        }
      ]
    }
  ],
  "nodes": [
    {
      "children": [
        1
      ],
      "matrix": [
        1.0,
        0.0,
        0.0,
        0.0,
        0.0,
        2.220446049250313e-16,
        -1.0,
        0.0,
        0.0,
        1.0,
        2.220446049250313e-16,
        0.0,
        0.0,
        -9.519079213760052e-08,
        8.406483686940189e-08,
        1.0
      ],
      "name": "Sketchfab_model"
    },
    {
      "children": [
        2
      ],
      "name": "root"
    },
    {
      "children": [
        3
      ],
      "matrix": [
        1.0,
        0.0,
        0.0,
        0.0,
        0.0,
        2.220446049250313e-16,
        1.0,
        0.0,
        0.0,
        -1.0,
        2.220446049250313e-16,
        0.0,
        0.0,
        0.0,
        0.0,
        1.0
      ],
      "name": "GLTF_SceneRootNode"
    },
    {
      "children": [
        4,
        5,
        6
      ],
      "matrix": [
        1.0,
        0.0,
        0.0,
        0.0,
        0.0,
        -1.685873969314855e-07,
        0.9999999999999858,
        0.0,
        0.0,
        -0.9999999999999858,
        -1.685873969314855e-07,
        0.0,
        0.0,
        0.0,
        0.0,
        1.0
      ],
      "name": "Cyber_Room_Vf10_0"
    },
    {
      "mesh": 0,
      "name": "Object_4"
    },
    {
      "mesh": 1,
      "name": "Object_5"
    },
    {
      "mesh": 2,
      "name": "Object_6"
    }
  ],
  "samplers": [
    {
      "magFilter": 9729,
      "minFilter": 9987,
      "wrapS": 10497,
      "wrapT": 10497
    }
  ],
  "scene": 0,
  "scenes": [
    {
      "name": "Sketchfab_Scene",
      "nodes": [
        0
      ]
    }
  ],
  "textures": [
    {
      "sampler": 0,
      "source": 0
    }
  ]
}
